<?xml version="1.0" standalone="no"?><!DOCTYPE svg PUBLIC "-//W3C//DTD SVG 1.1//EN" "http://www.w3.org/Graphics/SVG/1.1/DTD/svg11.dtd"><svg t="1748401001244" class="icon" viewBox="0 0 1024 1024" version="1.1" xmlns="http://www.w3.org/2000/svg" p-id="6937" xmlns:xlink="http://www.w3.org/1999/xlink" width="16" height="16"><path d="M803.84 863.744c-8.704 0-16.896-3.584-23.552-10.24L512 585.728l-267.264 267.264c-6.656 6.656-14.336 10.24-23.04 10.24-12.288 0-25.088-7.168-39.424-21.504-14.848-14.848-21.504-27.648-21.504-39.936 0-8.704 3.584-16.384 10.752-23.04L438.272 512 170.496 244.224c-25.6-26.112 0-52.736 9.728-62.464 11.776-11.776 25.088-23.04 39.424-23.04 8.192 0 16.384 3.584 24.576 11.264L512 438.272l267.776-267.264c7.168-7.168 15.36-10.752 23.552-10.752 12.288 0 24.064 7.168 40.96 23.552 11.264 11.264 35.328 35.328 9.216 60.928L585.728 512l267.264 267.264c23.04 23.04 9.216 44.032-9.216 62.976-13.824 14.336-27.648 21.504-39.936 21.504z" fill="#ffffff" p-id="6938"></path></svg>