<?xml version="1.0" standalone="no"?><!DOCTYPE svg PUBLIC "-//W3C//DTD SVG 1.1//EN" "http://www.w3.org/Graphics/SVG/1.1/DTD/svg11.dtd"><svg t="1744973707735" class="icon" viewBox="0 0 1024 1024" version="1.1" xmlns="http://www.w3.org/2000/svg" p-id="9064" xmlns:xlink="http://www.w3.org/1999/xlink" width="16" height="16"><path d="M849.2 637.1c-12.7-5.8-27.7-0.1-33.5 12.6-54 118.9-173.2 195.7-303.7 195.7-160.5 0-294.8-114-326.4-265.3l56.1 56.1c4.9 4.9 11.4 7.4 17.9 7.4 6.5 0 13-2.5 17.9-7.4 9.9-9.9 9.9-25.9 0-35.8L171.2 494.1c-1.2-1.2-2.5-2.2-3.9-3.2-0.6-0.4-1.3-0.7-1.9-1.1-0.8-0.4-1.6-0.9-2.4-1.3-0.8-0.3-1.7-0.5-2.5-0.8-0.7-0.2-1.4-0.5-2.2-0.7-1.6-0.3-3.1-0.5-4.7-0.5h-0.2-0.2c-1.6 0-3.2 0.2-4.7 0.5-0.8 0.2-1.5 0.4-2.2 0.7-0.8 0.2-1.7 0.4-2.5 0.8-0.9 0.4-1.6 0.8-2.4 1.3-0.6 0.4-1.3 0.6-1.9 1.1-2.8 1.9-5.2 4.2-7 7-0.4 0.6-0.7 1.3-1 1.9-0.4 0.8-0.9 1.6-1.3 2.4-0.3 0.8-0.5 1.7-0.8 2.6-0.2 0.7-0.5 1.4-0.6 2.2-0.3 1.6-0.5 3.3-0.5 5 0 211.7 172.3 384 384 384 150.3 0 287.6-88.5 349.8-225.4 5.5-12.7-0.1-27.7-12.9-33.5zM880.4 535.4c0.8-0.4 1.6-0.8 2.4-1.3 0.6-0.4 1.3-0.6 1.9-1.1 2.8-1.9 5.2-4.2 7-7 0.4-0.6 0.7-1.3 1-1.9 0.4-0.8 0.9-1.6 1.3-2.4 0.3-0.8 0.5-1.7 0.8-2.6 0.2-0.7 0.5-1.4 0.6-2.2 0.3-1.6 0.5-3.3 0.5-5 0-211.7-172.3-384-384-384-152.1 0-290.1 89.9-351.5 229.1-5.6 12.8 0.1 27.7 12.9 33.4 12.8 5.7 27.7-0.2 33.4-12.9C260.1 256.7 379.9 178.6 512 178.6c160.5 0 294.8 114 326.4 265.3l-56.1-56.1c-9.9-9.9-25.9-9.9-35.8 0-9.9 9.9-9.9 25.9 0 35.8L852.9 530c1.2 1.2 2.5 2.2 3.9 3.2 0.6 0.4 1.3 0.7 1.9 1.1 0.8 0.4 1.6 0.9 2.4 1.3 0.8 0.3 1.7 0.5 2.5 0.8 0.7 0.2 1.4 0.5 2.2 0.6 1.6 0.3 3.3 0.5 5 0.5 1.7 0 3.3-0.2 5-0.5 0.8-0.1 1.5-0.4 2.2-0.6 0.7-0.5 1.5-0.7 2.4-1z" p-id="9065" fill="#ffffff"></path></svg>