<?xml version="1.0" encoding="utf-8" ?><svg xmlns="http://www.w3.org/2000/svg" xmlns:xlink="http://www.w3.org/1999/xlink" width="200" height="300"><path fill="#000" d="M97.7268 -0.4882Q98.0891 -0.3469 98.373 -0.0789L99.0839 0.5922L97.7108 2.0465L97 1.3753L97.0004 1.3752L97.7268 -0.4882ZM100.5056 1.9346L101.9273 3.2769L100.5543 4.7311L99.1325 3.3888L100.5056 1.9346ZM103.349 4.6193L104.7707 5.9616L103.3977 7.4158L101.976 6.0735L103.349 4.6193ZM106.1924 7.3039L107.6141 8.6463L106.2411 10.1005L104.8194 8.7581L106.1924 7.3039ZM109.0358 9.9886L110.4575 11.3309L109.0845 12.7851L107.6628 11.4428L109.0358 9.9886ZM111.8792 12.6733L113.3009 14.0156L111.9279 15.4698L110.5062 14.1275L111.8792 12.6733ZM114.7226 15.3579L116.1443 16.7003L114.7713 18.1545L113.3496 16.8122L114.7226 15.3579ZM117.566 18.0426L118.9877 19.3849L117.6147 20.8392L116.193 19.4968L117.566 18.0426ZM120.4094 20.7273L121.8311 22.0696L120.4581 23.5238L119.0364 22.1815L120.4094 20.7273ZM123.2528 23.4119L124.6746 24.7543L123.3015 26.2085L121.8798 24.8662L123.2528 23.4119ZM126.0963 26.0966L127.518 27.4389L126.1449 28.8932L124.7232 27.5508L126.0963 26.0966ZM128.9397 28.7813L130.3614 30.1236L128.9883 31.5778L127.5666 30.2355L128.9397 28.7813ZM131.7831 31.4659L133.2048 32.8083L131.8317 34.2625L130.41 32.9202L131.7831 31.4659ZM134.6265 34.1506L136.0482 35.493L134.6751 36.9472L133.2534 35.6048L134.6265 34.1506ZM137.4699 36.8353L138.8916 38.1776L137.5186 39.6318L136.0968 38.2895L137.4699 36.8353ZM140.3133 39.52L141.735 40.8623L140.362 42.3165L138.9403 40.9742L140.3133 39.52ZM143.1567 42.2046L143.8675 42.8758L143.8621 42.8707L142.5012 44.3363L142.4945 44.33L141.7837 43.6589L143.1567 42.2046ZM143.8634 42.8719Q143.8702 42.8783 143.8769 42.8846Q143.8706 42.8787 143.864 42.8725L144.5858 43.5587L143.2077 45.0081L142.5031 44.3381Q142.4966 44.3321 142.4896 44.3253Q142.4962 44.3317 142.5025 44.3375L143.8634 42.8719ZM146.0123 44.9151L147.4388 46.2715L146.0607 47.7209L144.6342 46.3645L146.0123 44.9151ZM148.8653 47.6278L150.2918 48.9842L148.9137 50.4336L147.4872 49.0772L148.8653 47.6278ZM151.7183 50.3405L153.1448 51.6969L151.7666 53.1463L150.3401 51.7899L151.7183 50.3405ZM154.5712 53.0532L155.9977 54.4096L154.6196 55.859L153.1931 54.5026L154.5712 53.0532ZM157.4242 55.7659L158.8507 57.1223L157.4726 58.5717L156.0461 57.2153L157.4242 55.7659ZM160.2772 58.4787L161.7037 59.835L160.3255 61.2844L158.899 59.9281L160.2772 58.4787ZM163.1302 61.1914L164.5566 62.5477L163.1785 63.9971L161.752 62.6408L163.1302 61.1914ZM165.9831 63.9041L167.4096 65.2604L166.0315 66.7098L164.605 65.3535L165.9831 63.9041ZM168.8361 66.6168L170.2626 67.9732L168.8844 69.4225L167.458 68.0662L168.8361 66.6168ZM171.6891 69.3295L173.1156 70.6859L171.7374 72.1353L170.3109 70.7789L171.6891 69.3295ZM174.5421 72.0422L175.9685 73.3986L174.5904 74.848L173.1639 73.4916L174.5421 72.0422ZM177.395 74.7549L178.8215 76.1113L177.4434 77.5607L176.0169 76.2043L177.395 74.7549ZM180.248 77.4677L181.6745 78.824L180.2963 80.2734L178.8699 78.917L180.248 77.4677ZM183.101 80.1804L184.5275 81.5367L183.1493 82.9861L181.7228 81.6298L183.101 80.1804ZM185.9539 82.8931L187.3804 84.2494L186.0023 85.6988L184.5758 84.3425L185.9539 82.8931ZM188.8069 85.6058L189.5201 86.284Q189.7138 86.4681 189.8523 86.6965L188.142 87.7333L188.142 87.7333L187.4288 87.0552L188.8069 85.6058ZM190.1415 87.688Q190.1476 87.9549 190.0833 88.2142L189.8418 89.1891L187.9005 88.7082L188.142 87.7334L188.142 87.7333L190.1415 87.688ZM189.3588 91.1388L188.8758 93.0885L186.9345 92.6075L187.4175 90.6579L189.3588 91.1388ZM188.3928 95.0381L187.9098 96.9878L185.9685 96.5069L186.4515 94.5572L188.3928 95.0381ZM187.4268 98.9375L186.9438 100.8872L185.0025 100.4062L185.4855 98.4566L187.4268 98.9375ZM186.4608 102.8368L185.9779 104.7865L184.0365 104.3056L184.5195 102.3559L186.4608 102.8368ZM185.4949 106.7362L185.0119 108.6859L183.0706 108.2049L183.5535 106.2553L185.4949 106.7362ZM184.5289 110.6355L184.0459 112.5852L182.1046 112.1043L182.5876 110.1546L184.5289 110.6355ZM183.5629 114.5349L183.0799 116.4846L181.1386 116.0036L181.6216 114.054L183.5629 114.5349ZM182.5969 118.4342L182.1139 120.3839L180.1726 119.903L180.6556 117.9533L182.5969 118.4342ZM181.6309 122.3336L181.1479 124.2833L179.2066 123.8023L179.6896 121.8527L181.6309 122.3336ZM180.6649 126.2329L180.1819 128.1826L178.2406 127.7017L178.7236 125.752L180.6649 126.2329ZM179.6989 130.1323L179.2159 132.082L177.2746 131.601L177.7576 129.6514L179.6989 130.1323ZM178.7329 134.0316L178.2499 135.9813L176.3086 135.5004L176.7916 133.5507L178.7329 134.0316ZM177.7669 137.931L177.284 139.8807L175.3426 139.3997L175.8256 137.4501L177.7669 137.931ZM176.8009 141.8303L176.318 143.78L174.3766 143.2991L174.8596 141.3494L176.8009 141.8303ZM175.835 145.7297L175.352 147.6794L173.4107 147.1984L173.8936 145.2488L175.835 145.7297ZM174.869 149.629L174.386 151.5787L172.4447 151.0978L172.9277 149.1481L174.869 149.629ZM173.903 153.5284L173.42 155.4781L171.4787 154.9971L171.9617 153.0475L173.903 153.5284ZM172.937 157.4277L172.6955 158.4026L172.6935 158.4106L170.7559 157.9149L170.7542 157.9217L170.9957 156.9468L172.937 157.4277ZM172.7021 158.3736Q172.6951 158.4067 172.6857 158.4395L171.7242 158.1647L172.6942 158.4078L172.4509 159.3789L170.5108 158.8928L170.7581 157.9058L170.7627 157.89Q170.7535 157.922 170.7466 157.9546L172.7021 158.3736ZM171.9642 161.3212L171.4776 163.2634L169.5375 162.7773L170.0242 160.8351L171.9642 161.3212ZM170.9909 165.2056L170.5042 167.1479L168.5642 166.6618L169.0509 164.7195L170.9909 165.2056ZM170.0176 169.0901L169.5309 171.0324L167.5909 170.5462L168.0775 168.604L170.0176 169.0901ZM169.0443 172.9746L168.5576 174.9169L166.6176 174.4307L167.1042 172.4885L169.0443 172.9746ZM168.0709 176.8591L167.5843 178.8013L165.6442 178.3152L166.1309 176.373L168.0709 176.8591ZM167.0976 180.7436L166.6109 182.6858L164.6709 182.1997L165.1576 180.2575L167.0976 180.7436ZM166.1243 184.6281L165.6376 186.5703L163.6976 186.0842L164.1842 184.1419L166.1243 184.6281ZM165.151 188.5125L164.6643 190.4548L162.7243 189.9687L163.2109 188.0264L165.151 188.5125ZM164.1776 192.397L163.691 194.3393L161.7509 193.8531L162.2376 191.9109L164.1776 192.397ZM163.2043 196.2815L162.7177 198.2237L160.7776 197.7376L161.2643 195.7954L163.2043 196.2815ZM162.231 200.166L161.7443 202.1082L159.8043 201.6221L160.291 199.6799L162.231 200.166ZM161.2577 204.0504L160.771 205.9927L158.831 205.5066L159.3176 203.5644L161.2577 204.0504ZM160.2844 207.9349L159.7977 209.8772L157.8577 209.3911L158.3443 207.4488L160.2844 207.9349ZM159.311 211.8194L158.8244 213.7616L156.8844 213.2756L157.371 211.3333L159.311 211.8194ZM158.3377 215.7039L157.8511 217.6461L155.911 217.16L156.3977 215.2178L158.3377 215.7039ZM157.3644 219.5883L156.8777 221.5306L154.9377 221.0445L155.4244 219.1023L157.3644 219.5883ZM156.3911 223.4728L155.9044 225.4151L153.9644 224.929L154.451 222.9867L156.3911 223.4728ZM155.4178 227.3573L155.1744 228.3285Q155.0921 228.657 154.9067 228.9396L153.2346 227.8423L153.2344 227.8424L153.4777 226.8712L155.4178 227.3573ZM153.8964 229.7297Q153.5775 229.8416 153.2387 229.8424L152.2346 229.8446L152.2302 227.8446L153.2344 227.8424L153.2342 227.8425L153.8964 229.7297ZM150.2262 229.8489L148.2178 229.8533L148.2135 227.8533L150.2218 227.8489L150.2262 229.8489ZM146.2095 229.8577L144.2011 229.8621L144.1967 227.8621L146.2051 227.8577L146.2095 229.8577ZM142.1927 229.8665L140.1843 229.8708L140.18 227.8708L142.1884 227.8665L142.1927 229.8665ZM138.176 229.8752L136.1676 229.8796L136.1632 227.8796L138.1716 227.8752L138.176 229.8752ZM134.1592 229.884L132.1508 229.8884L132.1465 227.8884L134.1549 227.884L134.1592 229.884ZM130.1425 229.8927L128.1341 229.8971L128.1297 227.8971L130.1381 227.8927L130.1425 229.8927ZM126.1257 229.9015L124.1174 229.9059L124.113 227.9059L126.1214 227.9015L126.1257 229.9015ZM122.109 229.9103L120.1006 229.9146L120.0963 227.9146L122.1046 227.9103L122.109 229.9103ZM118.0922 229.919L116.0839 229.9234L116.0795 227.9234L118.0879 227.919L118.0922 229.919ZM114.0755 229.9278L112.0671 229.9322L112.0628 227.9322L114.0711 227.9278L114.0755 229.9278ZM110.0588 229.9365L108.0504 229.9409L108.046 227.9409L110.0544 227.9365L110.0588 229.9365ZM106.042 229.9453L104.0336 229.9497L104.0293 227.9497L106.0377 227.9453L106.042 229.9453ZM102.0253 229.9541L100.0169 229.9584L100.0125 227.9584L102.0209 227.9541L102.0253 229.9541ZM98.0085 229.9628L97.0044 229.965L97.0016 229.965L97.0011 229.965L97.0011 227.965L97.0016 227.965L97 227.965L98.0042 227.9628L98.0085 229.9628ZM96.9989 229.965L96.9984 229.965L96.9978 229.965L95.9914 229.9628L95.9958 227.9628L96.9978 227.965L96.9984 227.965L96.9989 227.965L96.9989 229.965ZM93.9831 229.9584L91.9747 229.9541L91.9791 227.9541L93.9874 227.9584L93.9831 229.9584ZM89.9663 229.9497L87.958 229.9453L87.9623 227.9453L89.9707 227.9497L89.9663 229.9497ZM85.9496 229.9409L83.9412 229.9365L83.9456 227.9365L85.954 227.9409L85.9496 229.9409ZM81.9329 229.9322L79.9245 229.9278L79.9288 227.9278L81.9372 227.9322L81.9329 229.9322ZM77.9161 229.9234L75.9077 229.919L75.9121 227.919L77.9205 227.9234L77.9161 229.9234ZM73.8994 229.9146L71.891 229.9103L71.8954 227.9103L73.9037 227.9146L73.8994 229.9146ZM69.8826 229.9059L67.8742 229.9015L67.8786 227.9015L69.887 227.9059L69.8826 229.9059ZM65.8659 229.8971L63.8575 229.8927L63.8619 227.8927L65.8702 227.8971L65.8659 229.8971ZM61.8491 229.8884L59.8408 229.884L59.8451 227.884L61.8535 227.8884L61.8491 229.8884ZM57.8324 229.8796L55.824 229.8752L55.8284 227.8752L57.8368 227.8796L57.8324 229.8796ZM53.8156 229.8708L51.8073 229.8665L51.8116 227.8665L53.82 227.8708L53.8156 229.8708ZM49.7989 229.8621L47.7905 229.8577L47.7949 227.8577L49.8033 227.8621L49.7989 229.8621ZM45.7822 229.8533L43.7738 229.8489L43.7781 227.8489L45.7865 227.8533L45.7822 229.8533ZM41.7654 229.8446L40.7612 229.8424Q40.4226 229.8416 40.1036 229.7297L40.7658 227.8425L40.7656 227.8424L41.7698 227.8446L41.7654 229.8446ZM39.0933 228.9396Q38.9079 228.657 38.8256 228.3285L38.5823 227.3574L40.5223 226.8712L40.7656 227.8423L40.7654 227.8423L39.0933 228.9396ZM38.0956 225.4151L37.6089 223.4729L39.549 222.9868L40.0356 224.929L38.0956 225.4151ZM37.1223 221.5306L36.6356 219.5884L38.5756 219.1023L39.0623 221.0445L37.1223 221.5306ZM36.149 217.6462L35.6623 215.7039L37.6023 215.2178L38.089 217.16L36.149 217.6462ZM35.1756 213.7617L34.689 211.8194L36.629 211.3333L37.1157 213.2756L35.1756 213.7617ZM34.2023 209.8772L33.7157 207.935L35.6557 207.4489L36.1423 209.3911L34.2023 209.8772ZM33.229 205.9927L32.7423 204.0505L34.6824 203.5644L35.169 205.5066L33.229 205.9927ZM32.2557 202.1082L31.769 200.166L33.709 199.6799L34.1957 201.6221L32.2557 202.1082ZM31.2824 198.2238L30.7957 196.2815L32.7357 195.7954L33.2224 197.7377L31.2824 198.2238ZM30.309 194.3393L29.8224 192.397L31.7624 191.9109L32.2491 193.8532L30.309 194.3393ZM29.3357 190.4548L28.8491 188.5126L30.7891 188.0265L31.2757 189.9687L29.3357 190.4548ZM28.3624 186.5703L27.8757 184.6281L29.8158 184.142L30.3024 186.0842L28.3624 186.5703ZM27.3891 182.6859L26.9024 180.7436L28.8424 180.2575L29.3291 182.1997L27.3891 182.6859ZM26.4158 178.8014L25.9291 176.8591L27.8691 176.373L28.3558 178.3153L26.4158 178.8014ZM25.4424 174.9169L24.9558 172.9747L26.8958 172.4886L27.3825 174.4308L25.4424 174.9169ZM24.4691 171.0324L23.9825 169.0902L25.9225 168.6041L26.4091 170.5463L24.4691 171.0324ZM23.4958 167.1479L23.0091 165.2057L24.9492 164.7196L25.4358 166.6618L23.4958 167.1479ZM22.5225 163.2635L22.0358 161.3212L23.9758 160.8351L24.4625 162.7774L22.5225 163.2635ZM21.5492 159.379L21.3058 158.4079L21.3062 158.4092L23.2452 157.9191L23.2458 157.9218L23.4892 158.8929L21.5492 159.379ZM21.3039 158.4001L21.3037 158.3994L21.063 157.4277L23.0043 156.9468L23.2466 157.9247L23.2467 157.9254L21.3039 158.4001ZM20.58 155.478L20.097 153.5283L22.0383 153.0474L22.5213 154.9971L20.58 155.478ZM19.614 151.5787L19.131 149.629L21.0723 149.1481L21.5553 151.0977L19.614 151.5787ZM18.648 147.6793L18.165 145.7296L20.1063 145.2487L20.5893 147.1984L18.648 147.6793ZM17.682 143.78L17.199 141.8303L19.1404 141.3494L19.6234 143.299L17.682 143.78ZM16.716 139.8806L16.233 137.931L18.1744 137.45L18.6574 139.3997L16.716 139.8806ZM15.7501 135.9813L15.2671 134.0316L17.2084 133.5507L17.6914 135.5004L15.7501 135.9813ZM14.7841 132.0819L14.3011 130.1322L16.2424 129.6513L16.7254 131.601L14.7841 132.0819ZM13.8181 128.1826L13.3351 126.2329L15.2764 125.752L15.7594 127.7017L13.8181 128.1826ZM12.8521 124.2832L12.3691 122.3336L14.3104 121.8526L14.7934 123.8023L12.8521 124.2832ZM11.8861 120.3839L11.4031 118.4342L13.3444 117.9533L13.8274 119.903L11.8861 120.3839ZM10.9201 116.4845L10.4371 114.5349L12.3784 114.0539L12.8614 116.0036L10.9201 116.4845ZM9.9541 112.5852L9.4711 110.6355L11.4124 110.1546L11.8954 112.1043L9.9541 112.5852ZM8.9881 108.6858L8.5051 106.7362L10.4465 106.2552L10.9294 108.2049L8.9881 108.6858ZM8.0221 104.7865L7.5391 102.8368L9.4805 102.3559L9.9635 104.3056L8.0221 104.7865ZM7.0562 100.8871L6.5732 98.9375L8.5145 98.4565L8.9975 100.4062L7.0562 100.8871ZM6.0902 96.9878L5.6072 95.0381L7.5485 94.5572L8.0315 96.5069L6.0902 96.9878ZM5.1242 93.0884L4.6412 91.1388L6.5825 90.6579L7.0655 92.6075L5.1242 93.0884ZM4.1582 89.1891L3.9167 88.2143Q3.8524 87.9548 3.8585 87.6879L5.858 87.7334L5.858 87.7333L6.0995 88.7082L4.1582 89.1891ZM4.1477 86.6965Q4.2862 86.4681 4.4799 86.284L5.1931 85.6058L6.5712 87.0552L5.858 87.7334L5.858 87.7333L4.1477 86.6965ZM6.6196 84.2494L8.0461 82.8931L9.4242 84.3425L7.9977 85.6988L6.6196 84.2494ZM9.4726 81.5367L10.8991 80.1804L12.2772 81.6297L10.8507 82.9861L9.4726 81.5367ZM12.3255 78.824L13.752 77.4676L15.1302 78.917L13.7037 80.2734L12.3255 78.824ZM15.1785 76.1113L16.605 74.7549L17.9831 76.2043L16.5566 77.5607L15.1785 76.1113ZM18.0315 73.3986L19.458 72.0422L20.8361 73.4916L19.4096 74.848L18.0315 73.3986ZM20.8845 70.6859L22.3109 69.3295L23.6891 70.7789L22.2626 72.1353L20.8845 70.6859ZM23.7374 67.9732L25.1639 66.6168L26.542 68.0662L25.1156 69.4225L23.7374 67.9732ZM26.5904 65.2604L28.0169 63.9041L29.395 65.3535L27.9685 66.7098L26.5904 65.2604ZM29.4434 62.5477L30.8699 61.1914L32.248 62.6408L30.8215 63.9971L29.4434 62.5477ZM32.2963 59.835L33.7228 58.4787L35.101 59.928L33.6745 61.2844L32.2963 59.835ZM35.1493 57.1223L36.5758 55.7659L37.9539 57.2153L36.5274 58.5717L35.1493 57.1223ZM38.0023 54.4096L39.4288 53.0532L40.8069 54.5026L39.3804 55.859L38.0023 54.4096ZM40.8553 51.6969L42.2817 50.3405L43.6599 51.7899L42.2334 53.1463L40.8553 51.6969ZM43.7082 48.9842L45.1347 47.6278L46.5128 49.0772L45.0864 50.4336L43.7082 48.9842ZM46.5612 46.2714L47.9877 44.9151L49.3658 46.3645L47.9393 47.7208L46.5612 46.2714ZM49.4142 43.5587L50.1274 42.8806L50.1279 42.8801L51.5063 44.3292L51.5055 44.33L50.7923 45.0081L49.4142 43.5587ZM50.1314 42.8768L50.132 42.8762L50.8433 42.2046L52.2164 43.6588L51.506 44.3295L51.5054 44.3301L50.1314 42.8768ZM52.265 40.8623L53.6867 39.5199L55.0598 40.9741L53.6381 42.3165L52.265 40.8623ZM55.1084 38.1776L56.5301 36.8353L57.9032 38.2895L56.4815 39.6318L55.1084 38.1776ZM57.9518 35.4929L59.3735 34.1506L60.7466 35.6048L59.3249 36.9471L57.9518 35.4929ZM60.7952 32.8083L62.2169 31.4659L63.59 32.9201L62.1683 34.2625L60.7952 32.8083ZM63.6387 30.1236L65.0603 28.7813L66.4334 30.2355L65.0117 31.5778L63.6387 30.1236ZM66.4821 27.4389L67.9038 26.0966L69.2768 27.5508L67.8551 28.8931L66.4821 27.4389ZM69.3255 24.7543L70.7472 23.4119L72.1202 24.8661L70.6985 26.2085L69.3255 24.7543ZM72.1689 22.0696L73.5906 20.7273L74.9636 22.1815L73.5419 23.5238L72.1689 22.0696ZM75.0123 19.3849L76.434 18.0426L77.807 19.4968L76.3853 20.8391L75.0123 19.3849ZM77.8557 16.7003L79.2774 15.3579L80.6504 16.8121L79.2287 18.1545L77.8557 16.7003ZM80.6991 14.0156L82.1208 12.6733L83.4938 14.1275L82.0721 15.4698L80.6991 14.0156ZM83.5425 11.3309L84.9642 9.9886L86.3372 11.4428L84.9155 12.7851L83.5425 11.3309ZM86.3859 8.6463L87.8076 7.3039L89.1806 8.7582L87.7589 10.1005L86.3859 8.6463ZM89.2293 5.9616L90.651 4.6193L92.024 6.0735L90.6023 7.4158L89.2293 5.9616ZM92.0727 3.2769L93.4944 1.9346L94.8674 3.3888L93.4457 4.7312L92.0727 3.2769ZM94.9161 0.5923L95.627 -0.0789Q95.9108 -0.3469 96.2732 -0.4882L96.9996 1.3753L97 1.3753L96.2891 2.0465L94.9161 0.5923Z"/> <path fill="#F00" d="M96.3135 0.6482C96.6988 0.2843 97.3011 0.2843 97.6865 0.6482L143.181 43.6029C143.1819 43.6037 143.1827 43.6045 143.1835 43.6053L188.8311 87.0087C189.0916 87.2564 189.1991 87.6249 189.1127 87.9738L171.7248 158.1621C171.7246 158.163 171.7244 158.1639 171.7242 158.1647L154.2044 228.0854C154.0931 228.5295 153.6944 228.8414 153.2366 228.8424L97.0022 228.965C97.0007 228.965 96.9993 228.965 96.9978 228.965L40.7634 228.8424C40.3056 228.8414 39.9069 228.5295 39.7956 228.0854L22.2758 158.1648C22.2756 158.1639 22.2754 158.163 22.2752 158.1621L4.8873 87.9738C4.8009 87.6249 4.9084 87.2564 5.1689 87.0087L50.8165 43.6053C50.8173 43.6045 50.8182 43.6036 50.819 43.6029L96.3135 0.6482Z"/></svg>
