<?xml version="1.0" encoding="utf-8" ?><svg xmlns="http://www.w3.org/2000/svg" xmlns:xlink="http://www.w3.org/1999/xlink" width="200" height="200"><path fill="#FFF" d="M96.3135 0.6482C96.6988 0.2843 97.3011 0.2843 97.6865 0.6482L143.181 43.6029C143.1819 43.6037 143.1827 43.6045 143.1835 43.6053L188.8311 87.0087C189.0916 87.2564 189.1991 87.6249 189.1127 87.9738L171.7248 158.1621C171.7246 158.163 171.7244 158.1639 171.7242 158.1647L154.2044 228.0854C154.0931 228.5295 153.6944 228.8414 153.2366 228.8424L97.0022 228.965C97.0007 228.965 96.9993 228.965 96.9978 228.965L40.7634 228.8424C40.3056 228.8414 39.9069 228.5295 39.7956 228.0854L22.2758 158.1648C22.2756 158.1639 22.2754 158.163 22.2752 158.1621L4.8873 87.9738C4.8009 87.6249 4.9084 87.2564 5.1689 87.0087L50.8165 43.6053C50.8173 43.6045 50.8182 43.6036 50.819 43.6029L96.3135 0.6482Z"/></svg>
