<?xml version="1.0" encoding="utf-8" ?><svg xmlns="http://www.w3.org/2000/svg" xmlns:xlink="http://www.w3.org/1999/xlink" width="200" height="200"><path fill="#FFF" d="M95.627 -0.0789L94.9161 0.5923L95.6026 1.3194L96.2891 2.0465L97 1.3753L97.7108 2.0465L99.0839 0.5922L98.373 -0.0789Q98.0891 -0.3469 97.7268 -0.4882L97.0004 1.3752L97 1.3753L96.9996 1.3753L96.2732 -0.4882Q95.9108 -0.3469 95.627 -0.0789ZM97.3636 0.4435L98.3974 1.3194L97.6865 0.6482C97.5902 0.5572 97.4803 0.489 97.3636 0.4435ZM96.6364 0.4435C96.5197 0.489 96.4098 0.5572 96.3135 0.6482L95.6026 1.3194L96.6364 0.4435ZM101.9273 3.2769L100.5056 1.9346L99.1325 3.3888L100.5543 4.7311L101.9273 3.2769ZM93.4944 1.9346L92.0727 3.2769L93.4457 4.7312L94.8674 3.3888L93.4944 1.9346ZM104.7707 5.9616L103.349 4.6193L101.976 6.0735L103.3977 7.4158L104.7707 5.9616ZM90.651 4.6193L89.2293 5.9616L90.6023 7.4158L92.024 6.0735L90.651 4.6193ZM107.6141 8.6463L106.1924 7.3039L104.8194 8.7581L106.2411 10.1005L107.6141 8.6463ZM87.8076 7.3039L86.3859 8.6463L87.7589 10.1005L89.1806 8.7582L87.8076 7.3039ZM110.4575 11.3309L109.0358 9.9886L107.6628 11.4428L109.0845 12.7851L110.4575 11.3309ZM84.9642 9.9886L83.5425 11.3309L84.9155 12.7851L86.3372 11.4428L84.9642 9.9886ZM82.1208 12.6733L80.6991 14.0156L82.0721 15.4698L83.4938 14.1275L82.1208 12.6733ZM113.3009 14.0156L111.8792 12.6733L110.5062 14.1275L111.9279 15.4698L113.3009 14.0156ZM79.2774 15.3579L77.8557 16.7003L79.2287 18.1545L80.6504 16.8121L79.2774 15.3579ZM116.1443 16.7003L114.7226 15.3579L113.3496 16.8122L114.7713 18.1545L116.1443 16.7003ZM76.434 18.0426L75.0123 19.3849L76.3853 20.8391L77.807 19.4968L76.434 18.0426ZM118.9877 19.3849L117.566 18.0426L116.193 19.4968L117.6147 20.8392L118.9877 19.3849ZM73.5906 20.7273L72.1689 22.0696L73.5419 23.5238L74.9636 22.1815L73.5906 20.7273ZM121.8311 22.0696L120.4094 20.7273L119.0364 22.1815L120.4581 23.5238L121.8311 22.0696ZM70.7472 23.4119L69.3255 24.7543L70.6985 26.2085L72.1202 24.8661L70.7472 23.4119ZM124.6746 24.7543L123.2528 23.4119L121.8798 24.8662L123.3015 26.2085L124.6746 24.7543ZM67.9038 26.0966L66.4821 27.4389L67.8551 28.8931L69.2768 27.5508L67.9038 26.0966ZM127.518 27.4389L126.0963 26.0966L124.7232 27.5508L126.1449 28.8932L127.518 27.4389ZM65.0603 28.7813L63.6387 30.1236L65.0117 31.5778L66.4334 30.2355L65.0603 28.7813ZM130.3614 30.1236L128.9397 28.7813L127.5666 30.2355L128.9883 31.5778L130.3614 30.1236ZM62.2169 31.4659L60.7952 32.8083L62.1683 34.2625L63.59 32.9201L62.2169 31.4659ZM133.2048 32.8083L131.7831 31.4659L130.41 32.9202L131.8317 34.2625L133.2048 32.8083ZM59.3735 34.1506L57.9518 35.4929L59.3249 36.9471L60.7466 35.6048L59.3735 34.1506ZM136.0482 35.493L134.6265 34.1506L133.2534 35.6048L134.6751 36.9472L136.0482 35.493ZM56.5301 36.8353L55.1084 38.1776L56.4815 39.6318L57.9032 38.2895L56.5301 36.8353ZM138.8916 38.1776L137.4699 36.8353L136.0968 38.2895L137.5186 39.6318L138.8916 38.1776ZM53.6867 39.5199L52.265 40.8623L53.6381 42.3165L55.0598 40.9741L53.6867 39.5199ZM141.735 40.8623L140.3133 39.52L138.9403 40.9742L140.362 42.3165L141.735 40.8623ZM50.132 42.8762L50.1314 42.8768L50.8184 43.6035L51.2163 44.0243L50.8171 43.6047L50.1279 42.8801L50.1274 42.8806L49.4142 43.5587L50.7923 45.0081L51.5054 44.3301L51.5055 44.33L51.506 44.3295L51.5063 44.3292L52.2164 43.6588L50.8433 42.2046L50.132 42.8762ZM143.8621 42.8707L143.1567 42.2046L141.7837 43.6589L142.4896 44.3253L142.4945 44.33L142.5012 44.3363L142.5031 44.3381L143.2077 45.0081L144.5858 43.5587L143.8768 42.8847L143.8675 42.8758L143.864 42.8724L143.8634 42.8719L143.1829 43.6047L142.5025 44.3375L142.5012 44.3363L143.1817 43.6035L143.8621 42.8707L143.8621 42.8707ZM47.9877 44.9151L46.5612 46.2714L47.9393 47.7208L49.3658 46.3645L47.9877 44.9151ZM147.4388 46.2715L146.0123 44.9151L144.6342 46.3645L146.0607 47.7209L147.4388 46.2715ZM45.1347 47.6278L43.7082 48.9842L45.0864 50.4336L46.5128 49.0772L45.1347 47.6278ZM150.2918 48.9842L148.8653 47.6278L147.4872 49.0772L148.9137 50.4336L150.2918 48.9842ZM42.2817 50.3405L40.8553 51.6969L42.2334 53.1463L43.6599 51.7899L42.2817 50.3405ZM153.1448 51.6969L151.7183 50.3405L150.3401 51.7899L151.7666 53.1463L153.1448 51.6969ZM39.4288 53.0532L38.0023 54.4096L39.3804 55.859L40.8069 54.5026L39.4288 53.0532ZM155.9977 54.4096L154.5712 53.0532L153.1931 54.5026L154.6196 55.859L155.9977 54.4096ZM36.5758 55.7659L35.1493 57.1223L36.5274 58.5717L37.9539 57.2153L36.5758 55.7659ZM158.8507 57.1223L157.4242 55.7659L156.0461 57.2153L157.4726 58.5717L158.8507 57.1223ZM33.7228 58.4787L32.2963 59.835L33.6745 61.2844L35.101 59.928L33.7228 58.4787ZM161.7037 59.835L160.2772 58.4787L158.899 59.9281L160.3255 61.2844L161.7037 59.835ZM30.8699 61.1914L29.4434 62.5477L30.8215 63.9971L32.248 62.6408L30.8699 61.1914ZM164.5566 62.5477L163.1302 61.1914L161.752 62.6408L163.1785 63.9971L164.5566 62.5477ZM28.0169 63.9041L26.5904 65.2604L27.9685 66.7098L29.395 65.3535L28.0169 63.9041ZM167.4096 65.2604L165.9831 63.9041L164.605 65.3535L166.0315 66.7098L167.4096 65.2604ZM25.1639 66.6168L23.7374 67.9732L25.1156 69.4225L26.542 68.0662L25.1639 66.6168ZM170.2626 67.9732L168.8361 66.6168L167.458 68.0662L168.8844 69.4225L170.2626 67.9732ZM22.3109 69.3295L20.8845 70.6859L22.2626 72.1353L23.6891 70.7789L22.3109 69.3295ZM173.1156 70.6859L171.6891 69.3295L170.3109 70.7789L171.7374 72.1353L173.1156 70.6859ZM19.458 72.0422L18.0315 73.3986L19.4096 74.848L20.8361 73.4916L19.458 72.0422ZM175.9685 73.3986L174.5421 72.0422L173.1639 73.4916L174.5904 74.848L175.9685 73.3986ZM16.605 74.7549L15.1785 76.1113L16.5566 77.5607L17.9831 76.2043L16.605 74.7549ZM178.8215 76.1113L177.395 74.7549L176.0169 76.2043L177.4434 77.5607L178.8215 76.1113ZM13.752 77.4676L12.3255 78.824L13.7037 80.2734L15.1302 78.917L13.752 77.4676ZM181.6745 78.824L180.248 77.4677L178.8699 78.917L180.2963 80.2734L181.6745 78.824ZM10.8991 80.1804L9.4726 81.5367L10.8507 82.9861L12.2772 81.6297L10.8991 80.1804ZM184.5275 81.5367L183.101 80.1804L181.7228 81.6298L183.1493 82.9861L184.5275 81.5367ZM8.0461 82.8931L6.6196 84.2494L7.9977 85.6988L9.4242 84.3425L8.0461 82.8931ZM187.3804 84.2494L185.9539 82.8931L184.5758 84.3425L186.0023 85.6988L187.3804 84.2494ZM4.4799 86.284Q4.2862 86.4681 4.1477 86.6965L5.0029 87.2149L5.858 87.7334L6.5712 87.0552L5.1931 85.6058L4.4799 86.284ZM5.8822 86.3305L5.0029 87.2149C5.0482 87.1401 5.1038 87.0706 5.1689 87.0087L5.8822 86.3305ZM189.5201 86.284L188.8069 85.6058L187.4288 87.0552L188.142 87.7333L187.9005 88.7082L189.8418 89.1891L190.0833 88.2142Q190.1476 87.9549 190.1415 87.688L189.1418 87.7107L188.142 87.7334L188.9971 87.2149L189.8523 86.6965Q189.7138 86.4681 189.5201 86.284ZM189.1418 87.7106L188.8712 88.9486L189.1127 87.9738C189.1343 87.8866 189.1438 87.7981 189.1418 87.7106ZM188.9971 87.2149C188.9518 87.1401 188.8962 87.0706 188.8311 87.0087L188.1178 86.3305L188.9971 87.2149ZM3.9167 88.2143L4.1582 89.1891L6.0995 88.7082L5.858 87.7334L3.8585 87.6879Q3.8524 87.9548 3.9167 88.2143ZM4.8582 87.7106L5.1288 88.9486L4.8873 87.9738C4.8657 87.8866 4.8562 87.7981 4.8582 87.7106ZM4.6412 91.1388L5.1242 93.0884L7.0655 92.6075L6.5825 90.6579L4.6412 91.1388ZM188.8758 93.0885L189.3588 91.1388L187.4175 90.6579L186.9345 92.6075L188.8758 93.0885ZM5.6072 95.0381L6.0902 96.9878L8.0315 96.5069L7.5485 94.5572L5.6072 95.0381ZM187.9098 96.9878L188.3928 95.0381L186.4515 94.5572L185.9685 96.5069L187.9098 96.9878ZM6.5732 98.9375L7.0562 100.8871L8.9975 100.4062L8.5145 98.4565L6.5732 98.9375ZM186.9438 100.8872L187.4268 98.9375L185.4855 98.4566L185.0025 100.4062L186.9438 100.8872ZM7.5391 102.8368L8.0221 104.7865L9.9635 104.3056L9.4805 102.3559L7.5391 102.8368ZM185.9779 104.7865L186.4608 102.8368L184.5195 102.3559L184.0365 104.3056L185.9779 104.7865ZM8.5051 106.7362L8.9881 108.6858L10.9294 108.2049L10.4465 106.2552L8.5051 106.7362ZM185.0119 108.6859L185.4949 106.7362L183.5535 106.2553L183.0706 108.2049L185.0119 108.6859ZM9.4711 110.6355L9.9541 112.5852L11.8954 112.1043L11.4124 110.1546L9.4711 110.6355ZM184.0459 112.5852L184.5289 110.6355L182.5876 110.1546L182.1046 112.1043L184.0459 112.5852ZM10.4371 114.5349L10.9201 116.4845L12.8614 116.0036L12.3784 114.0539L10.4371 114.5349ZM183.0799 116.4846L183.5629 114.5349L181.6216 114.054L181.1386 116.0036L183.0799 116.4846ZM11.4031 118.4342L11.8861 120.3839L13.8274 119.903L13.3444 117.9533L11.4031 118.4342ZM182.1139 120.3839L182.5969 118.4342L180.6556 117.9533L180.1726 119.903L182.1139 120.3839ZM12.3691 122.3336L12.8521 124.2832L14.7934 123.8023L14.3104 121.8526L12.3691 122.3336ZM181.1479 124.2833L181.6309 122.3336L179.6896 121.8527L179.2066 123.8023L181.1479 124.2833ZM13.3351 126.2329L13.8181 128.1826L15.7594 127.7017L15.2764 125.752L13.3351 126.2329ZM180.1819 128.1826L180.6649 126.2329L178.7236 125.752L178.2406 127.7017L180.1819 128.1826ZM14.3011 130.1322L14.7841 132.0819L16.7254 131.601L16.2424 129.6513L14.3011 130.1322ZM179.2159 132.082L179.6989 130.1323L177.7576 129.6514L177.2746 131.601L179.2159 132.082ZM15.2671 134.0316L15.7501 135.9813L17.6914 135.5004L17.2084 133.5507L15.2671 134.0316ZM178.2499 135.9813L178.7329 134.0316L176.7916 133.5507L176.3086 135.5004L178.2499 135.9813ZM16.233 137.931L16.716 139.8806L18.6574 139.3997L18.1744 137.45L16.233 137.931ZM177.284 139.8807L177.7669 137.931L175.8256 137.4501L175.3426 139.3997L177.284 139.8807ZM17.199 141.8303L17.682 143.78L19.6234 143.299L19.1404 141.3494L17.199 141.8303ZM176.318 143.78L176.8009 141.8303L174.8596 141.3494L174.3766 143.2991L176.318 143.78ZM18.165 145.7296L18.648 147.6793L20.5893 147.1984L20.1063 145.2487L18.165 145.7296ZM175.352 147.6794L175.835 145.7297L173.8936 145.2488L173.4107 147.1984L175.352 147.6794ZM19.131 149.629L19.614 151.5787L21.5553 151.0977L21.0723 149.1481L19.131 149.629ZM174.386 151.5787L174.869 149.629L172.9277 149.1481L172.4447 151.0978L174.386 151.5787ZM20.097 153.5283L20.58 155.478L22.5213 154.9971L22.0383 153.0474L20.097 153.5283ZM173.42 155.4781L173.903 153.5284L171.9617 153.0475L171.4787 154.9971L173.42 155.4781ZM21.3037 158.3994L21.3039 158.4001L22.2753 158.1628L22.4477 158.1206L22.2757 158.1641L21.3062 158.4092L21.5492 159.379L23.4892 158.8929L23.2468 157.9254L23.2466 157.9247L23.2458 157.9218L23.2452 157.9191L23.0043 156.9468L21.063 157.4277L21.3037 158.3994ZM172.6955 158.4026L172.937 157.4277L170.9957 156.9468L170.7581 157.9058L170.7559 157.9149L171.7247 158.1628L171.7583 158.1714L171.7243 158.1641L170.7466 157.9546Q170.7501 157.9381 170.7542 157.9217L170.5108 158.8928L172.4509 159.3789L172.6935 158.4106L172.6942 158.4078L172.6955 158.4026ZM171.4776 163.2634L171.9642 161.3212L170.0242 160.8351L169.5375 162.7773L171.4776 163.2634ZM22.0358 161.3212L22.5225 163.2635L24.4625 162.7774L23.9758 160.8351L22.0358 161.3212ZM170.5042 167.1479L170.9909 165.2056L169.0509 164.7195L168.5642 166.6618L170.5042 167.1479ZM23.0091 165.2057L23.4958 167.1479L25.4358 166.6618L24.9492 164.7196L23.0091 165.2057ZM169.5309 171.0324L170.0176 169.0901L168.0775 168.604L167.5909 170.5462L169.5309 171.0324ZM23.9825 169.0902L24.4691 171.0324L26.4091 170.5463L25.9225 168.6041L23.9825 169.0902ZM168.5576 174.9169L169.0443 172.9746L167.1042 172.4885L166.6176 174.4307L168.5576 174.9169ZM24.9558 172.9747L25.4424 174.9169L27.3825 174.4308L26.8958 172.4886L24.9558 172.9747ZM167.5843 178.8013L168.0709 176.8591L166.1309 176.373L165.6442 178.3152L167.5843 178.8013ZM25.9291 176.8591L26.4158 178.8014L28.3558 178.3153L27.8691 176.373L25.9291 176.8591ZM166.6109 182.6858L167.0976 180.7436L165.1576 180.2575L164.6709 182.1997L166.6109 182.6858ZM26.9024 180.7436L27.3891 182.6859L29.3291 182.1997L28.8424 180.2575L26.9024 180.7436ZM165.6376 186.5703L166.1243 184.6281L164.1842 184.1419L163.6976 186.0842L165.6376 186.5703ZM27.8757 184.6281L28.3624 186.5703L30.3024 186.0842L29.8158 184.142L27.8757 184.6281ZM164.6643 190.4548L165.151 188.5125L163.2109 188.0264L162.7243 189.9687L164.6643 190.4548ZM28.8491 188.5126L29.3357 190.4548L31.2757 189.9687L30.7891 188.0265L28.8491 188.5126ZM163.691 194.3393L164.1776 192.397L162.2376 191.9109L161.7509 193.8531L163.691 194.3393ZM29.8224 192.397L30.309 194.3393L32.2491 193.8532L31.7624 191.9109L29.8224 192.397ZM162.7177 198.2237L163.2043 196.2815L161.2643 195.7954L160.7776 197.7376L162.7177 198.2237ZM30.7957 196.2815L31.2824 198.2238L33.2224 197.7377L32.7357 195.7954L30.7957 196.2815ZM161.7443 202.1082L162.231 200.166L160.291 199.6799L159.8043 201.6221L161.7443 202.1082ZM31.769 200.166L32.2557 202.1082L34.1957 201.6221L33.709 199.6799L31.769 200.166ZM160.771 205.9927L161.2577 204.0504L159.3176 203.5644L158.831 205.5066L160.771 205.9927ZM32.7423 204.0505L33.229 205.9927L35.169 205.5066L34.6824 203.5644L32.7423 204.0505ZM159.7977 209.8772L160.2844 207.9349L158.3443 207.4488L157.8577 209.3911L159.7977 209.8772ZM33.7157 207.935L34.2023 209.8772L36.1423 209.3911L35.6557 207.4489L33.7157 207.935ZM158.8244 213.7616L159.311 211.8194L157.371 211.3333L156.8844 213.2756L158.8244 213.7616ZM34.689 211.8194L35.1756 213.7617L37.1157 213.2756L36.629 211.3333L34.689 211.8194ZM157.8511 217.6461L158.3377 215.7039L156.3977 215.2178L155.911 217.16L157.8511 217.6461ZM35.6623 215.7039L36.149 217.6462L38.089 217.16L37.6023 215.2178L35.6623 215.7039ZM156.8777 221.5306L157.3644 219.5883L155.4244 219.1023L154.9377 221.0445L156.8777 221.5306ZM36.6356 219.5884L37.1223 221.5306L39.0623 221.0445L38.5756 219.1023L36.6356 219.5884ZM155.9044 225.4151L156.3911 223.4728L154.451 222.9867L153.9644 224.929L155.9044 225.4151ZM37.6089 223.4729L38.0956 225.4151L40.0356 224.929L39.549 222.9868L37.6089 223.4729ZM155.1744 228.3285L155.4178 227.3573L153.4777 226.8712L153.2346 227.8423L154.9067 228.9396Q155.0921 228.657 155.1744 228.3285ZM38.8256 228.3285Q38.9079 228.657 39.0933 228.9396L39.9294 228.391L40.7656 227.8423L40.5223 226.8712L38.5823 227.3574L38.8256 228.3285ZM154.2044 228.0854L154.4477 227.1143L154.0706 228.3909C154.1308 228.2992 154.1766 228.1964 154.2044 228.0854ZM39.7956 228.0854C39.8234 228.1964 39.8692 228.2992 39.9294 228.3909L39.5523 227.1143L39.7956 228.0854ZM152.2324 228.8446L153.5653 228.7861C153.4618 228.8224 153.351 228.8421 153.2366 228.8424L152.2324 228.8446ZM40.7612 229.8424L41.7654 229.8446L41.7698 227.8446L40.7658 227.8425L40.1036 229.7297Q40.4226 229.8416 40.7612 229.8424ZM43.7738 229.8489L45.7822 229.8533L45.7865 227.8533L43.7781 227.8489L43.7738 229.8489ZM148.2178 229.8533L150.2262 229.8489L150.2218 227.8489L148.2135 227.8533L148.2178 229.8533ZM47.7905 229.8577L49.7989 229.8621L49.8033 227.8621L47.7949 227.8577L47.7905 229.8577ZM144.2011 229.8621L146.2095 229.8577L146.2051 227.8577L144.1967 227.8621L144.2011 229.8621ZM51.8073 229.8665L53.8156 229.8708L53.82 227.8708L51.8116 227.8665L51.8073 229.8665ZM140.1843 229.8708L142.1927 229.8665L142.1884 227.8665L140.18 227.8708L140.1843 229.8708ZM55.824 229.8752L57.8324 229.8796L57.8368 227.8796L55.8284 227.8752L55.824 229.8752ZM136.1676 229.8796L138.176 229.8752L138.1716 227.8752L136.1632 227.8796L136.1676 229.8796ZM59.8408 229.884L61.8491 229.8884L61.8535 227.8884L59.8451 227.884L59.8408 229.884ZM132.1508 229.8884L134.1592 229.884L134.1549 227.884L132.1465 227.8884L132.1508 229.8884ZM63.8575 229.8927L65.8659 229.8971L65.8702 227.8971L63.8619 227.8927L63.8575 229.8927ZM128.1341 229.8971L130.1425 229.8927L130.1381 227.8927L128.1297 227.8971L128.1341 229.8971ZM67.8742 229.9015L69.8826 229.9059L69.887 227.9059L67.8786 227.9015L67.8742 229.9015ZM124.1174 229.9059L126.1257 229.9015L126.1214 227.9015L124.113 227.9059L124.1174 229.9059ZM71.891 229.9103L73.8994 229.9146L73.9037 227.9146L71.8954 227.9103L71.891 229.9103ZM120.1006 229.9146L122.109 229.9103L122.1046 227.9103L120.0963 227.9146L120.1006 229.9146ZM75.9077 229.919L77.9161 229.9234L77.9205 227.9234L75.9121 227.919L75.9077 229.919ZM116.0839 229.9234L118.0922 229.919L118.0879 227.919L116.0795 227.9234L116.0839 229.9234ZM79.9245 229.9278L81.9329 229.9322L81.9372 227.9322L79.9288 227.9278L79.9245 229.9278ZM112.0671 229.9322L114.0755 229.9278L114.0711 227.9278L112.0628 227.9322L112.0671 229.9322ZM83.9412 229.9365L85.9496 229.9409L85.954 227.9409L83.9456 227.9365L83.9412 229.9365ZM108.0504 229.9409L110.0588 229.9365L110.0544 227.9365L108.046 227.9409L108.0504 229.9409ZM87.958 229.9453L89.9663 229.9497L89.9707 227.9497L87.9623 227.9453L87.958 229.9453ZM104.0336 229.9497L106.042 229.9453L106.0377 227.9453L104.0293 227.9497L104.0336 229.9497ZM91.9747 229.9541L93.9831 229.9584L93.9874 227.9584L91.9791 227.9541L91.9747 229.9541ZM100.0169 229.9584L102.0253 229.9541L102.0209 227.9541L100.0125 227.9584L100.0169 229.9584ZM96.9984 229.965L96.9989 229.965L96.9989 227.965L96.9978 227.965L95.9958 227.9628L95.9914 229.9628L96.9978 229.965L96.9984 229.965ZM97.0044 229.965L98.0085 229.9628L98.0042 227.9628L97.0016 227.965L97.0011 227.965L97.0011 229.965L97.0044 229.965ZM40.7634 228.8424L41.7676 228.8446L40.4347 228.7861C40.5382 228.8224 40.649 228.8421 40.7634 228.8424ZM153.2387 229.8424Q153.5775 229.8416 153.8964 229.7297L153.2342 227.8425L152.2324 228.8446L152.2346 229.8446L153.2387 229.8424Z" fill-rule="evenodd"/></svg>
